<?xml version="1.0" encoding="UTF-8" standalone="no"?>
<!DOCTYPE svg PUBLIC "-//W3C//DTD SVG 1.1//EN" "http://www.w3.org/Graphics/SVG/1.1/DTD/svg11.dtd">
<svg width="100%" height="100%" viewBox="0 0 3785 826" version="1.1" xmlns="http://www.w3.org/2000/svg" xmlns:xlink="http://www.w3.org/1999/xlink" xml:space="preserve" xmlns:serif="http://www.serif.com/" style="fill-rule:evenodd;clip-rule:evenodd;">
    <g transform="matrix(1,0,0,1,-25.7306,-1253.05)">
        <g transform="matrix(3.38416,0,0,3.38416,25.7306,-3180.98)">
            <g transform="matrix(1.11827,0,0,1.21965,0,1310.23)">
                <rect x="0" y="0" width="1000" height="200" style="fill:rgb(29,129,140);"/>
            </g>
            <g transform="matrix(1,0,0,1,18.1301,1335.54)">
                <g transform="matrix(0.950466,0,0,1,3.96271,0)">
                    <rect x="80" y="60" width="778" height="60" style="fill:rgb(6,87,96);"/>
                </g>
                <g>
                    <g>
                        <g>
                            <g>
                                <g transform="matrix(1,0,0,1,227.82,0)">
                                    <path d="M0,60L0,120" style="fill:none;fill-rule:nonzero;stroke:rgb(0,46,51);stroke-width:1px;"/>
                                </g>
                                <g transform="matrix(1,0,0,1,375.64,0)">
                                    <path d="M0,60L0,120" style="fill:none;fill-rule:nonzero;stroke:rgb(0,46,51);stroke-width:1px;"/>
                                </g>
                                <g transform="matrix(1,0,0,1,523.46,0)">
                                    <path d="M0,60L0,120" style="fill:none;fill-rule:nonzero;stroke:rgb(0,46,51);stroke-width:1px;"/>
                                </g>
                                <g transform="matrix(1,0,0,1,671.28,0)">
                                    <path d="M0,60L0,120" style="fill:none;fill-rule:nonzero;stroke:rgb(0,46,51);stroke-width:1px;"/>
                                </g>
                                <g transform="matrix(1,0,0,1,819.1,0)">
                                    <path d="M0,60L0,120" style="fill:none;fill-rule:nonzero;stroke:rgb(0,46,51);stroke-width:1px;"/>
                                </g>
                            </g>
                        </g>
                        <g transform="matrix(1,0,0,1,80,60)">
                            <g>
                                <g>
                                    <g>
                                        <g>
                                            <rect x="0" y="33" width="512.12" height="24" style="fill:rgb(59,127,239);fill-rule:nonzero;stroke:rgb(6,87,96);stroke-width:1.4px;"/>
                                        </g>
                                    </g>
                                </g>
                                <g>
                                    <g>
                                        <g>
                                            <rect x="512.12" y="33" width="226.98" height="24" style="fill:rgb(239,85,59);fill-rule:nonzero;stroke:rgb(6,87,96);stroke-width:1.4px;"/>
                                        </g>
                                    </g>
                                </g>
                                <g>
                                    <g>
                                        <g>
                                            <rect x="0" y="3" width="48.77" height="24" style="fill:rgb(59,239,123);fill-rule:nonzero;stroke:rgb(6,87,96);stroke-width:1.4px;"/>
                                        </g>
                                    </g>
                                </g>
                            </g>
                        </g>
                        <g>
                            <g transform="matrix(1,0,0,1,80,133)">
                                <text x="-8.672px" y="0px" style="font-family:'ArialMT', 'Arial', sans-serif;font-size:12px;fill:white;">0%</text>
                            </g>
                            <g transform="matrix(1,0,0,1,227.82,133)">
                                <text x="-12.009px" y="0px" style="font-family:'ArialMT', 'Arial', sans-serif;font-size:12px;fill:white;">20%</text>
                            </g>
                            <g transform="matrix(1,0,0,1,375.64,133)">
                                <text x="-12.009px" y="0px" style="font-family:'ArialMT', 'Arial', sans-serif;font-size:12px;fill:white;">40%</text>
                            </g>
                            <g transform="matrix(1,0,0,1,523.46,133)">
                                <text x="-12.009px" y="0px" style="font-family:'ArialMT', 'Arial', sans-serif;font-size:12px;fill:white;">60%</text>
                            </g>
                            <g transform="matrix(1,0,0,1,671.28,133)">
                                <text x="-12.009px" y="0px" style="font-family:'ArialMT', 'Arial', sans-serif;font-size:12px;fill:white;">80%</text>
                            </g>
                            <g transform="matrix(1,0,0,1,819.1,133)">
                                <text x="-15.346px" y="0px" style="font-family:'ArialMT', 'Arial', sans-serif;font-size:12px;fill:white;">100%</text>
                            </g>
                        </g>
                        <g transform="matrix(1,0,0,1,80,0)">
                            <path d="M0,60L0,120" style="fill:none;fill-rule:nonzero;stroke:rgb(0,46,51);stroke-width:2px;"/>
                        </g>
                        <g transform="matrix(1,0,0,1,819.125,0)">
                            <path d="M0,60L0,120" style="fill:none;fill-rule:nonzero;stroke:rgb(0,46,51);stroke-width:2px;"/>
                        </g>
                        <g transform="matrix(1,0,0,1,-3.62811,0)">
                            <g transform="matrix(1,0,0,1,79,109.2)">
                                <text x="-38.021px" y="0px" style="font-family:'ArialMT', 'Arial', sans-serif;font-size:12px;fill:white;">Scored</text>
                            </g>
                            <g transform="matrix(1,0,0,1,79,79.2)">
                                <text x="-60.029px" y="0px" style="font-family:'ArialMT', 'Arial', sans-serif;font-size:12px;fill:white;">Not Scored</text>
                            </g>
                        </g>
                    </g>
                </g>
            </g>
            <g transform="matrix(1,0,0,1,0,1310.23)">
                <g transform="matrix(1,0,0,1,874.288,169.606)">
                    <g>
                        <g transform="matrix(1,0,0,1,-790.577,8.09473)">
                            <g>
                                <g transform="matrix(1,0,0,1,40,4.68)">
                                    <text x="0px" y="0px" style="font-family:'ArialMT', 'Arial', sans-serif;font-size:12px;fill:white;">Y<tspan x="6.902px 13.576px " y="0px 0px ">es</tspan></text>
                                </g>
                                <g transform="matrix(1,0,0,1,20,0)">
                                    <g>
                                        <g>
                                            <rect x="-6" y="-6" width="12" height="12" style="fill:rgb(59,127,239);fill-rule:nonzero;"/>
                                        </g>
                                    </g>
                                </g>
                                <rect x="0" y="-9.5" width="108.281" height="19" style="fill-opacity:0;"/>
                            </g>
                        </g>
                        <g transform="matrix(1,0,0,1,-463.154,8.09473)">
                            <g>
                                <g transform="matrix(1,0,0,1,40,4.68)">
                                    <text x="0px" y="0px" style="font-family:'ArialMT', 'Arial', sans-serif;font-size:12px;fill:white;">No</text>
                                </g>
                                <g transform="matrix(1,0,0,1,20,0)">
                                    <g>
                                        <g>
                                            <rect x="-6" y="-6" width="12" height="12" style="fill:rgb(239,85,59);fill-rule:nonzero;"/>
                                        </g>
                                    </g>
                                </g>
                                <rect x="0" y="-9.5" width="108.281" height="19" style="fill-opacity:0;"/>
                            </g>
                        </g>
                        <g transform="matrix(1,0,0,1,-135.731,8.09473)">
                            <g>
                                <g transform="matrix(1,0,0,1,40,4.68)">
                                    <text x="0px" y="0px" style="font-family:'ArialMT', 'Arial', sans-serif;font-size:12px;fill:white;">Don&apos;t know</text>
                                </g>
                                <g transform="matrix(1,0,0,1,20,0)">
                                    <g>
                                        <g>
                                            <rect x="-6" y="-6" width="12" height="12" style="fill:rgb(59,239,123);fill-rule:nonzero;"/>
                                        </g>
                                    </g>
                                </g>
                                <rect x="0" y="-9.5" width="108.281" height="19" style="fill-opacity:0;"/>
                            </g>
                        </g>
                    </g>
                </g>
                <g transform="matrix(1,0,0,1,415.311,24.0391)">
                    <text x="-151.761px" y="0px" style="font-family:'ArialMT', 'Arial', sans-serif;font-size:14px;fill:white;">Have you been seen by more than three nurses?</text>
                </g>
            </g>
            <g transform="matrix(0.304655,0,0,0.292387,-46.3861,1279.38)">
                <rect x="2997.09" y="152.792" width="784.956" height="719.085" style="fill:rgb(6,87,96);"/>
            </g>
            <g transform="matrix(1,0,0,1,534.462,956.92)">
                <g transform="matrix(1,0,0,1,476.917,389.449)">
                    <text x="-130.797px" y="0px" style="font-family:'ArialMT', 'Arial', sans-serif;font-size:12.066px;fill:white;">Based on 394 responses.</text>
                </g>
                <g transform="matrix(1,0,0,1,476.917,453.341)">
                    <text x="-130.797px" y="0px" style="font-family:'ArialMT', 'Arial', sans-serif;font-size:12.066px;fill:white;">Don&apos;t know is not included in the score</text>
                    <text x="-130.797px" y="12.066px" style="font-family:'ArialMT', 'Arial', sans-serif;font-size:12.066px;fill:white;">but 6.60% (26 votes) of responses also</text>
                    <text x="-130.797px" y="24.132px" style="font-family:'ArialMT', 'Arial', sans-serif;font-size:12.066px;fill:white;">said Don&apos;t know<tspan x="-46.664px " y="24.132px ">.</tspan></text>
                </g>
                <g transform="matrix(1,0,0,1,476.917,539.256)">
                    <text x="-130.797px" y="0px" style="font-family:'ArialMT', 'Arial', sans-serif;font-size:12.066px;fill:white;">69.29% (273 votes) of responses said</text>
                    <text x="-130.797px" y="12.066px" style="font-family:'ArialMT', 'Arial', sans-serif;font-size:12.066px;fill:white;">they had been seen by more than three</text>
                    <text x="-130.797px" y="24.132px" style="font-family:'ArialMT', 'Arial', sans-serif;font-size:12.066px;fill:white;">nurses.</text>
                </g>
            </g>
        </g>
    </g>
</svg>
